# xmcd
#
# Track frame offsets: 
#        150
#        13702
#        26550
#        39327
#        53705
#        66488
#        80238
#        93397
#        107126
#        119813
#        134215
#        147790
#        160810
#        172701
#        185690
#        199794
#        212714
#        226411
#
# Disc length: 3193 seconds
#
# Revision: 2
# Processed by: cddbd v1.5.2PL0 Copyright (c) Steve Scherf et al.
# Submitted via: ExactAudioCopy v0.90b4
#
DISCID=080c7712
DTITLE=Skip James - Cypress Grove Blues
DYEAR=2004
DGENRE=Blues
TTITLE0=Devil Got My Woman
TTITLE1=Four O'clock Blues
TTITLE2=22-20 Blues
TTITLE3=Cypress Grove Blues
TTITLE4=Cherry Ball Blues
TTITLE5=Illinois Blues
TTITLE6=Be Ready When He Comes
TTITLE7=Hard Luck Child
TTITLE8=Hard Time Killin' Floor Blues
TTITLE9=Yola My Blues Away
TTITLE10=Jesus is a Mighty Good Leader
TTITLE11=How Long 'Buck'
TTITLE12=Drunken Spree
TTITLE13=I'm So Glad
TTITLE14=Special Rider Blues
TTITLE15=Little Cow and Calf is Gonna Die Blues
TTITLE16=What am I To Do Blues
TTITLE17=If You Haven't Got Any Hay Get on Down the Road
EXTD=All tracks written by Skip James\n\nRecorded in Grafton Wisconsin
EXTD=February 1931\n\nYEAR: 1931
EXTT0=Skip James: Vocal, Guitar
EXTT1=Skip James: Vocal, Guitar
EXTT2=Skip James: Vocal, Piano
EXTT3=Skip James: Vocal, Guitar
EXTT4=Skip James: Vocal, Guitar
EXTT5=Skip James: Vocal, Guitar
EXTT6=Skip James: Vocal, Guitar
EXTT7=Skip James: Vocal, Guitar
EXTT8=Skip James: Vocal, Guitar
EXTT9=Skip James: Vocal, Guitar
EXTT10=Skip James: Vocal, Guitar
EXTT11=Skip James: Vocal, Piano
EXTT12=Skip James: Vocal, Guitar
EXTT13=Skip James: Vocal, Guitar
EXTT14=Skip James: Vocal, Guitar
EXTT15=Skip James: Vocal, Piano
EXTT16=Skip James: Vocal, Piano
EXTT17=Skip James: Vocal, Piano
PLAYORDER=
